<svg xmlns="http://www.w3.org/2000/svg" fill="none" viewBox="0 0 3921.4 777.94"><g fill="#fff"><path d="M1503.43 388.43q0 61.87-18.25 109.48-18.26 47.6-50.37 79.73-32.13 32.14-76.55 48.39-44.44 16.25-95.99 16.26c-51.55.01-66.38-5.43-95.99-16.26q-44.43-16.25-76.55-48.39-32.14-32.12-50.37-79.73-18.25-47.6-18.25-109.48c0-61.88 6.21-77.61 18.64-109.08q18.63-47.2 51.17-79.33 32.52-32.13 76.55-48.39t94.8-16.26c50.78-.01 65.45 5.43 94.8 16.26q44.02 16.27 76.55 48.39t51.17 79.33 18.64 109.08m-105.51 0q0-82.5-36.89-125.74t-98.77-43.24c-61.89 0-73.38 14.28-97.97 42.84q-36.89 42.84-36.89 126.14c0 83.3 12.16 97.58 36.49 126.14q36.49 42.84 98.37 42.84c61.88 0 74.17-14.28 98.77-42.84q36.89-42.84 36.89-126.14M1715.25 640.7q-23.02 0-42.44-4.36a232 232 0 0 1-35.3-10.71V771.6q-7.14 1.58-19.04 3.97-11.9 2.38-26.97 2.38-27.78-.01-41.25-10.31-13.5-10.32-13.49-36.49V328.94q-.01-19.04 7.54-30.94 7.53-11.9 24.2-22.21 23-13.48 57.12-23.4 34.1-9.92 76.95-9.92c42.85 0 55.93 3.84 80.52 11.5q36.89 11.5 63.86 35.7t42.05 61.48q15.06 37.3 15.07 88.85c.01 51.55-4.76 62.41-14.28 87.26q-14.28 37.3-39.27 62.67-24.99 25.4-59.5 38.08t-75.76 12.69Zm-15.08-80.13q47.59 0 74.57-29.35 26.96-29.35 26.97-91.23c.01-61.88-9.26-73.24-27.77-91.23q-27.78-26.96-71.4-26.97-21.43 0-37.68 5.55-16.27 5.56-28.16 11.9v203.88a118 118 0 0 0 28.16 12.69q15.47 4.76 35.3 4.76ZM2031.77 486.8q11.1 40.46 41.25 58.7t74.57 18.25q33.31 0 61.48-9.92t45.62-21.02a52.5 52.5 0 0 1 18.25 17.45 43.3 43.3 0 0 1 7.14 23.8q0 15.88-10.71 28.16-10.72 12.31-29.35 21.02-18.65 8.73-44.03 13.49-25.4 4.76-54.74 4.76-46.81 0-85.28-12.69-38.49-12.68-65.84-38.48-27.38-25.78-42.84-63.86t-15.47-88.85c0-50.77 5.02-61.34 15.07-85.68q15.06-36.49 40.86-61.08a164 164 0 0 1 59.89-36.49q34.1-11.9 72.19-11.9c38.09 0 49.71 4.1 71.4 12.3q32.52 12.3 55.53 34.11 23 21.82 36.1 52.36 13.1 30.55 13.09 66.24 0 22.22-11.5 33.32-11.5 11.12-32.13 14.28l-220.54 31.73Zm88.06-168.98q-38.88 0-65.05 25.78-26.19 25.78-29.35 73.38l176.11-26.18a88.4 88.4 0 0 0-23.01-51.17q-19.85-21.81-58.7-21.82ZM2567.65 337.65q-19.44-15.86-52.75-15.87-23.02 0-42.44 5.55-19.45 5.57-33.72 14.28v287.18q-7.14 1.58-19.04 3.97-11.9 2.38-26.97 2.38-27.78-.01-41.25-10.31-13.5-10.31-13.49-36.49V333.69q0-19.04 7.93-30.94 7.93-11.89 24.59-23.01 23-15.86 61.08-26.58t84.09-10.71q81.7 0 126.53 36.1 44.81 36.1 44.82 105.91V628.8a401 401 0 0 1-18.64 3.97 140 140 0 0 1-26.58 2.38q-28.56-.01-41.65-10.31t-13.09-36.49V387.64q0-34.1-19.44-49.98ZM3074.56 165.11a74 74 0 0 1 3.57 23.4q0 21.43-9.92 32.53t-27.37 11.11h-109.48V628.8a330 330 0 0 1-19.83 3.97q-13.5 2.38-27.77 2.38-30.16 0-42.84-11.11-12.7-11.1-12.69-37.29v-354.6h-133.28a110 110 0 0 1-7.54-17.45q-3.57-10.3-3.57-23.01 0-22.2 9.92-32.92 9.91-10.71 27.37-10.71h345.88q3.96 6.36 7.54 17.06ZM3547.76 386.05q0 64.26-18.64 112.25-18.65 48-52.75 79.33-34.12 31.35-82.11 47.2t-106.7 15.87q-13.5 0-29.35-.4a370 370 0 0 1-32.92-2.38 513 513 0 0 1-34.11-5.16 196 196 0 0 1-32.13-8.73q-38.08-14.28-38.08-47.6V187.72q0-14.28 7.93-22.21t22.21-12.69q29.35-10.3 63.86-13.09a818 818 0 0 1 65.45-2.78q59.5 0 109.08 15.47t84.49 46.41 54.34 77.74 19.44 109.48Zm-105.51.79q0-42.84-11.9-74.17-11.9-31.34-32.92-51.56t-49.98-30.15-63.07-9.92q-18.25 0-32.92 1.19a766 766 0 0 0-28.16 2.78v326.05q13.48 3.18 30.54 4.36t33.72 1.19q73.77 0 114.24-42.84 40.46-42.83 40.46-126.93ZM3910.29 148.05q3.96 6.35 7.54 17.06a74 74 0 0 1 3.57 23.4q0 21.43-9.92 32.53t-26.58 11.11h-191.19v126.14h189.6q3.96 6.36 7.54 16.66 3.57 10.32 3.57 23.01 0 21.42-9.92 32.13t-26.58 10.71h-162.63v188.01a591 591 0 0 1-20.23 3.97 153 153 0 0 1-27.37 2.38q-30.16 0-42.84-11.11-12.7-11.1-12.69-37.29V202.79q-.01-25.38 14.68-40.06 14.67-14.68 40.06-14.68h263.38Z"/></g><g fill="#0891b2"><circle cx="549.94" cy="363.64" r="178.18"/><path d="M549.94 686.45c-178 0-322.81-144.81-322.81-322.81s144.81-322.8 322.81-322.8 322.81 144.81 322.81 322.81-144.81 322.81-322.81 322.81Zm0-603.05c-154.53 0-280.25 125.72-280.25 280.25S395.41 643.9 549.94 643.9s280.25-125.72 280.25-280.25S704.47 83.4 549.94 83.4"/></g><path fill="#0891b2" d="M364.4 728.11q-3.86 0-7.7-.08a12.7 12.7 0 0 1 .53-25.39c13.5.28 27.23-.25 40.75-1.6a12.7 12.7 0 0 1 2.52 25.28 366 366 0 0 1-36.1 1.8Zm-82.83-9.96q-1.5 0-3.02-.36a365 365 0 0 1-41.89-12.94 12.7 12.7 0 0 1 8.94-23.78 340 340 0 0 0 38.97 12.04 12.7 12.7 0 0 1-3 25.04m192.1-7.35a12.7 12.7 0 0 1-3.92-24.79 341 341 0 0 0 37.96-14.88 12.7 12.7 0 0 1 10.68 23.04 364 364 0 0 1-40.8 15.99q-1.96.63-3.92.62Zm-300.44-39.41c-2.37 0-4.76-.66-6.9-2.05a367 367 0 0 1-35.27-25.99 12.7 12.7 0 0 1 16.26-19.52 343 343 0 0 0 32.83 24.19 12.7 12.7 0 0 1-6.92 23.35Zm-86.84-79.77c-3.79 0-7.54-1.69-10.04-4.92a364 364 0 0 1-24.71-36.17 12.7 12.7 0 0 1 21.8-13.04 337 337 0 0 0 22.97 33.63 12.7 12.7 0 0 1-10.03 20.48ZM30.86 487.61a12.7 12.7 0 0 1-12.05-8.69A369 369 0 0 1 8.1 439.56l-.62-2.96a12.7 12.7 0 0 1 24.89-5.09l.57 2.75c2.65 12.38 6 24.72 9.97 36.65a12.7 12.7 0 0 1-12.05 16.71ZM12.7 371.04h-.17A12.7 12.7 0 0 1 0 358.17a362 362 0 0 1 3.24-43.75 12.71 12.71 0 0 1 25.17 3.41 337 337 0 0 0-3.01 40.67 12.7 12.7 0 0 1-12.7 12.53Zm21.44-116.02q-2.19 0-4.38-.78a12.7 12.7 0 0 1-7.55-16.3 370 370 0 0 1 17.54-40.17 12.7 12.7 0 1 1 22.62 11.54 341 341 0 0 0-16.33 37.38 12.7 12.7 0 0 1-11.92 8.33ZM92.7 152.61a12.7 12.7 0 0 1-9.82-20.75 367 367 0 0 1 29.76-32.15 12.7 12.7 0 1 1 17.57 18.35 341 341 0 0 0-27.69 29.91 12.7 12.7 0 0 1-9.83 4.65Zm89-77.36a12.69 12.69 0 0 1-6.61-23.55 364 364 0 0 1 38.76-20.48 12.7 12.7 0 0 1 10.49 23.13c-12.34 5.6-24.47 12-36.04 19.04a12.6 12.6 0 0 1-6.59 1.85Zm269.09-40.64q-1.55 0-3.12-.39a341 341 0 0 0-40.07-7.59 12.7 12.7 0 1 1 3.21-25.19A363 363 0 0 1 453.9 9.6a12.7 12.7 0 0 1-3.1 25.01ZM291.3 31.76a12.7 12.7 0 0 1-2.64-25.12A371 371 0 0 1 331.98.05a12.7 12.7 0 1 1 2.31 25.29 345 345 0 0 0-40.33 6.13q-1.34.28-2.66.28Z"/></svg>