<svg viewBox="0 0 872.74 728.11" fill="none" xmlns="http://www.w3.org/2000/svg">
  <g>
    <circle cx="549.94" cy="363.64" r="178.18" fill="#0891b2"/>
    <path fill="#0891b2" d="M549.94,686.45c-178,0-322.81-144.81-322.81-322.81S371.94,40.84,549.94,40.84s322.81,144.81,322.81,322.81-144.81,322.81-322.81,322.81ZM549.94,83.4c-154.53,0-280.25,125.72-280.25,280.25s125.72,280.25,280.25,280.25,280.25-125.72,280.25-280.25-125.72-280.25-280.25-280.25Z"/>
  </g>
  <path fill="#0891b2" d="M364.4,728.11c-2.57,0-5.14-.03-7.7-.08-7.01-.15-12.58-5.95-12.43-12.96.15-7.01,5.95-12.52,12.96-12.43,13.5.28,27.23-.25,40.75-1.6,6.98-.68,13.2,4.4,13.9,11.38.7,6.98-4.4,13.2-11.38,13.9-11.96,1.19-24.1,1.8-36.1,1.8ZM281.57,718.15c-1,0-2.01-.12-3.02-.36-14.14-3.45-28.23-7.8-41.89-12.94-6.56-2.47-9.89-9.79-7.42-16.36,2.47-6.56,9.79-9.89,16.36-7.42,12.7,4.78,25.82,8.83,38.97,12.04,6.81,1.66,10.99,8.53,9.33,15.35-1.42,5.8-6.61,9.69-12.33,9.69ZM473.67,710.8c-5.36,0-10.34-3.42-12.08-8.79-2.16-6.67,1.49-13.83,8.16-16,12.92-4.19,25.69-9.2,37.96-14.88,6.36-2.95,13.91-.18,16.86,6.18,2.95,6.36.18,13.91-6.18,16.86-13.18,6.11-26.91,11.49-40.8,15.99-1.3.42-2.62.62-3.92.62ZM173.23,671.39c-2.37,0-4.76-.66-6.9-2.05-12.22-7.92-24.09-16.67-35.27-25.99-5.39-4.49-6.12-12.5-1.63-17.89,4.49-5.39,12.5-6.12,17.89-1.63,10.41,8.68,21.46,16.81,32.83,24.19,5.89,3.82,7.56,11.68,3.75,17.56-2.43,3.75-6.51,5.79-10.67,5.79ZM86.39,591.62c-3.79,0-7.54-1.69-10.04-4.92-8.93-11.51-17.24-23.68-24.71-36.17-3.6-6.02-1.64-13.82,4.38-17.42,6.02-3.6,13.82-1.64,17.42,4.38,6.94,11.62,14.67,22.93,22.97,33.63,4.3,5.54,3.29,13.52-2.25,17.82-2.32,1.79-5.06,2.66-7.78,2.66ZM30.86,487.61c-5.32,0-10.28-3.37-12.05-8.69-4.27-12.82-7.87-26.06-10.71-39.36l-.62-2.96c-1.41-6.87,3.03-13.58,9.9-14.99,6.88-1.41,13.58,3.03,14.99,9.9l.57,2.75c2.65,12.38,6,24.72,9.97,36.65,2.22,6.65-1.38,13.84-8.04,16.06-1.33.44-2.68.65-4.01.65ZM12.7,371.04c-.06,0-.11,0-.17,0-7.01-.09-12.62-5.85-12.53-12.87.19-14.58,1.28-29.3,3.24-43.75.94-6.95,7.33-11.8,14.29-10.88,6.95.94,11.82,7.34,10.88,14.29-1.82,13.43-2.83,27.12-3.01,40.67-.09,6.96-5.76,12.53-12.7,12.53ZM34.14,255.02c-1.45,0-2.93-.25-4.38-.78-6.58-2.42-9.96-9.71-7.55-16.3,5.02-13.66,10.92-27.18,17.54-40.17,3.19-6.25,10.83-8.73,17.08-5.54,6.25,3.19,8.73,10.84,5.54,17.08-6.17,12.09-11.66,24.66-16.33,37.38-1.89,5.14-6.75,8.33-11.92,8.33ZM92.7,152.61c-2.83,0-5.68-.94-8.05-2.88-5.42-4.45-6.21-12.45-1.77-17.87,9.25-11.28,19.26-22.09,29.76-32.15,5.06-4.85,13.1-4.68,17.96.39,4.85,5.07,4.68,13.1-.39,17.96-9.77,9.36-19.09,19.42-27.69,29.91-2.51,3.06-6.15,4.65-9.83,4.65ZM181.7,75.25c-4.29,0-8.47-2.17-10.86-6.1-3.65-5.99-1.75-13.81,4.25-17.45,12.44-7.57,25.48-14.46,38.76-20.48,6.39-2.9,13.91-.06,16.81,6.32,2.9,6.39.06,13.92-6.32,16.81-12.34,5.6-24.47,12-36.04,19.04-2.06,1.26-4.34,1.85-6.59,1.85ZM450.79,34.61c-1.03,0-2.08-.13-3.12-.39-13.15-3.32-26.63-5.87-40.07-7.59-6.96-.89-11.88-7.24-10.99-14.2s7.25-11.88,14.2-10.99c14.45,1.84,28.95,4.58,43.09,8.16,6.8,1.72,10.92,8.62,9.2,15.42-1.45,5.76-6.63,9.59-12.3,9.59ZM291.3,31.76c-5.87,0-11.13-4.08-12.41-10.05-1.46-6.86,2.91-13.61,9.77-15.07,14.28-3.05,28.85-5.26,43.32-6.59,6.99-.64,13.17,4.5,13.8,11.49.64,6.98-4.5,13.16-11.49,13.8-13.47,1.23-27.04,3.3-40.33,6.13-.89.19-1.79.28-2.66.28Z"/>
</svg>
