<svg xmlns="http://www.w3.org/2000/svg" fill="none" viewBox="0 0 872.74 728.11"><g fill="#0891b2"><circle cx="549.94" cy="363.64" r="178.18"/><path d="M549.94 686.45c-178 0-322.81-144.81-322.81-322.81s144.81-322.8 322.81-322.8 322.81 144.81 322.81 322.81-144.81 322.81-322.81 322.81Zm0-603.05c-154.53 0-280.25 125.72-280.25 280.25S395.41 643.9 549.94 643.9s280.25-125.72 280.25-280.25S704.47 83.4 549.94 83.4"/></g><path fill="#0891b2" d="M364.4 728.11q-3.86 0-7.7-.08a12.7 12.7 0 0 1 .53-25.39c13.5.28 27.23-.25 40.75-1.6a12.7 12.7 0 0 1 2.52 25.28 366 366 0 0 1-36.1 1.8Zm-82.83-9.96q-1.5 0-3.02-.36a365 365 0 0 1-41.89-12.94 12.7 12.7 0 0 1 8.94-23.78 340 340 0 0 0 38.97 12.04 12.7 12.7 0 0 1-3 25.04m192.1-7.35a12.7 12.7 0 0 1-3.92-24.79 341 341 0 0 0 37.96-14.88 12.7 12.7 0 0 1 10.68 23.04 364 364 0 0 1-40.8 15.99q-1.96.63-3.92.62Zm-300.44-39.41c-2.37 0-4.76-.66-6.9-2.05a367 367 0 0 1-35.27-25.99 12.7 12.7 0 0 1 16.26-19.52 343 343 0 0 0 32.83 24.19 12.7 12.7 0 0 1-6.92 23.35Zm-86.84-79.77c-3.79 0-7.54-1.69-10.04-4.92a364 364 0 0 1-24.71-36.17 12.7 12.7 0 0 1 21.8-13.04 337 337 0 0 0 22.97 33.63 12.7 12.7 0 0 1-10.03 20.48ZM30.86 487.61a12.7 12.7 0 0 1-12.05-8.69A369 369 0 0 1 8.1 439.56l-.62-2.96a12.7 12.7 0 0 1 24.89-5.09l.57 2.75c2.65 12.38 6 24.72 9.97 36.65a12.7 12.7 0 0 1-12.05 16.71ZM12.7 371.04h-.17A12.7 12.7 0 0 1 0 358.17a362 362 0 0 1 3.24-43.75 12.71 12.71 0 0 1 25.17 3.41 337 337 0 0 0-3.01 40.67 12.7 12.7 0 0 1-12.7 12.53Zm21.44-116.02q-2.19 0-4.38-.78a12.7 12.7 0 0 1-7.55-16.3 370 370 0 0 1 17.54-40.17 12.7 12.7 0 1 1 22.62 11.54 341 341 0 0 0-16.33 37.38 12.7 12.7 0 0 1-11.92 8.33ZM92.7 152.61a12.7 12.7 0 0 1-9.82-20.75 367 367 0 0 1 29.76-32.15 12.7 12.7 0 1 1 17.57 18.35 341 341 0 0 0-27.69 29.91 12.7 12.7 0 0 1-9.83 4.65Zm89-77.36a12.69 12.69 0 0 1-6.61-23.55 364 364 0 0 1 38.76-20.48 12.7 12.7 0 0 1 10.49 23.13c-12.34 5.6-24.47 12-36.04 19.04a12.6 12.6 0 0 1-6.59 1.85Zm269.09-40.64q-1.55 0-3.12-.39a341 341 0 0 0-40.07-7.59 12.7 12.7 0 1 1 3.21-25.19A363 363 0 0 1 453.9 9.6a12.7 12.7 0 0 1-3.1 25.01ZM291.3 31.76a12.7 12.7 0 0 1-2.64-25.12A371 371 0 0 1 331.98.05a12.7 12.7 0 1 1 2.31 25.29 345 345 0 0 0-40.33 6.13q-1.34.28-2.66.28Z"/></svg>