<svg viewBox="0 0 3921.4 777.94" fill="none" xmlns="http://www.w3.org/2000/svg">
  <g fill="#0f172a">
    <path d="M1503.43,388.43c0,41.25-6.09,77.74-18.25,109.48-12.17,31.73-28.96,58.31-50.37,79.73-21.42,21.42-46.94,37.56-76.55,48.39-29.63,10.83-61.62,16.26-95.99,16.26s-66.38-5.43-95.99-16.26c-29.63-10.83-55.13-26.97-76.55-48.39-21.42-21.42-38.22-47.99-50.37-79.73-12.17-31.73-18.25-68.22-18.25-109.48s6.21-77.61,18.64-109.08c12.42-31.46,29.48-57.91,51.17-79.33,21.68-21.42,47.2-37.55,76.55-48.39,29.35-10.83,60.95-16.26,94.8-16.26s65.45,5.43,94.8,16.26c29.35,10.85,54.86,26.97,76.55,48.39,21.68,21.42,38.74,47.87,51.17,79.33,12.42,31.47,18.64,67.83,18.64,109.08ZM1397.92,388.43c0-55-12.3-96.91-36.89-125.74-24.59-28.82-57.51-43.24-98.77-43.24s-73.38,14.28-97.97,42.84c-24.59,28.56-36.89,70.6-36.89,126.14s12.16,97.58,36.49,126.14c24.32,28.56,57.12,42.84,98.37,42.84s74.17-14.28,98.77-42.84c24.59-28.56,36.89-70.6,36.89-126.14Z"/>
    <path d="M1715.25,640.7c-15.35,0-29.49-1.46-42.44-4.36-12.97-2.91-24.73-6.48-35.3-10.71v145.97c-4.76,1.05-11.11,2.38-19.04,3.97-7.93,1.59-16.93,2.38-26.97,2.38-18.52,0-32.27-3.45-41.25-10.31-9-6.88-13.49-19.04-13.49-36.49v-402.21c0-12.69,2.5-23.01,7.54-30.94,5.02-7.93,13.09-15.33,24.2-22.21,15.33-8.99,34.37-16.78,57.12-23.4,22.73-6.61,48.39-9.92,76.95-9.92s55.93,3.84,80.52,11.5c24.59,7.67,45.88,19.57,63.86,35.7,17.97,16.14,31.99,36.63,42.05,61.48,10.04,24.87,15.07,54.48,15.07,88.85s-4.76,62.41-14.28,87.26c-9.52,24.87-22.61,45.75-39.27,62.67-16.66,16.93-36.49,29.63-59.5,38.08-23.01,8.45-48.27,12.69-75.76,12.69ZM1700.17,560.57c31.73,0,56.58-9.78,74.57-29.35,17.97-19.56,26.97-49.98,26.97-91.23s-9.26-73.24-27.77-91.23c-18.52-17.97-42.32-26.97-71.4-26.97-14.28,0-26.85,1.86-37.68,5.55-10.85,3.71-20.23,7.67-28.16,11.9v203.88c8.45,5.29,17.85,9.52,28.16,12.69,10.31,3.17,22.08,4.76,35.3,4.76Z"/>
    <path d="M2031.77,486.8c7.4,26.97,21.15,46.54,41.25,58.7,20.09,12.17,44.95,18.25,74.57,18.25,22.21,0,42.7-3.3,61.48-9.92,18.77-6.61,33.98-13.61,45.62-21.02,7.4,4.24,13.49,10.05,18.25,17.45,4.76,7.41,7.14,15.35,7.14,23.8,0,10.59-3.57,19.97-10.71,28.16-7.14,8.21-16.93,15.21-29.35,21.02-12.43,5.83-27.11,10.31-44.03,13.49-16.93,3.17-35.18,4.76-54.74,4.76-31.21,0-59.63-4.24-85.28-12.69-25.66-8.45-47.6-21.28-65.84-38.48-18.25-17.18-32.53-38.48-42.84-63.86-10.31-25.39-15.47-55-15.47-88.85s5.02-61.34,15.07-85.68c10.04-24.32,23.66-44.69,40.86-61.08,17.18-16.39,37.15-28.56,59.89-36.49,22.73-7.93,46.81-11.9,72.19-11.9s49.71,4.1,71.4,12.3c21.68,8.21,40.19,19.57,55.53,34.11,15.33,14.55,27.37,32,36.1,52.36,8.73,20.37,13.09,42.44,13.09,66.24,0,14.81-3.84,25.92-11.5,33.32-7.67,7.41-18.38,12.17-32.13,14.28l-220.54,31.73ZM2119.83,317.82c-25.92,0-47.6,8.6-65.05,25.78-17.45,17.19-27.25,41.65-29.35,73.38l176.11-26.18c-2.12-19.56-9.79-36.62-23.01-51.17-13.23-14.54-32.8-21.82-58.7-21.82Z"/>
    <path d="M2567.65,337.65c-12.97-10.57-30.54-15.87-52.75-15.87-15.35,0-29.49,1.86-42.44,5.55-12.97,3.71-24.2,8.47-33.72,14.28v287.18c-4.76,1.05-11.11,2.38-19.04,3.97-7.93,1.59-16.93,2.38-26.97,2.38-18.52,0-32.27-3.45-41.25-10.31-9-6.87-13.49-19.04-13.49-36.49v-254.65c0-12.69,2.64-23.01,7.93-30.94,5.28-7.93,13.49-15.59,24.59-23.01,15.33-10.57,35.7-19.44,61.08-26.58,25.39-7.14,53.41-10.71,84.09-10.71,54.47,0,96.65,12.04,126.53,36.1,29.87,24.07,44.82,59.37,44.82,105.91v244.34c-4.24,1.05-10.45,2.38-18.64,3.97-8.21,1.59-17.06,2.38-26.58,2.38-19.04,0-32.92-3.45-41.65-10.31-8.73-6.87-13.09-19.04-13.09-36.49v-200.71c0-22.73-6.48-39.39-19.44-49.98Z"/>
    <path d="M3074.56,165.11c2.38,7.14,3.57,14.95,3.57,23.4,0,14.28-3.31,25.13-9.92,32.53-6.62,7.41-15.74,11.11-27.37,11.11h-109.48v396.65c-4.24,1.05-10.85,2.38-19.83,3.97-9,1.59-18.25,2.38-27.77,2.38-20.11,0-34.38-3.71-42.84-11.11-8.47-7.4-12.69-19.83-12.69-37.29V232.15h-133.28c-2.65-4.76-5.16-10.57-7.54-17.45-2.38-6.87-3.57-14.54-3.57-23.01,0-14.8,3.3-25.78,9.92-32.92,6.61-7.14,15.73-10.71,27.37-10.71h345.88c2.64,4.24,5.16,9.92,7.54,17.06Z"/>
    <path d="M3547.76,386.05c0,42.84-6.22,80.26-18.64,112.25-12.43,32-30.02,58.44-52.75,79.33-22.75,20.9-50.11,36.63-82.11,47.2-32,10.57-67.57,15.87-106.7,15.87-9,0-18.78-.14-29.35-.4-10.59-.27-21.56-1.07-32.92-2.38-11.38-1.33-22.75-3.05-34.11-5.16-11.38-2.12-22.09-5.02-32.13-8.73-25.39-9.52-38.08-25.39-38.08-47.6V187.72c0-9.52,2.64-16.92,7.93-22.21,5.28-5.28,12.69-9.52,22.21-12.69,19.56-6.87,40.86-11.23,63.86-13.09,23.01-1.85,44.82-2.78,65.45-2.78,39.67,0,76.02,5.16,109.08,15.47,33.05,10.31,61.21,25.78,84.49,46.41,23.27,20.63,41.38,46.54,54.34,77.74,12.95,31.21,19.44,67.7,19.44,109.48ZM3442.25,386.84c0-28.56-3.97-53.28-11.9-74.17-7.93-20.89-18.92-38.08-32.92-51.56-14.02-13.49-30.68-23.53-49.98-30.15-19.31-6.61-40.33-9.92-63.07-9.92-12.17,0-23.14.4-32.92,1.19-9.79.79-19.18,1.72-28.16,2.78v326.05c8.99,2.12,19.16,3.57,30.54,4.36,11.37.79,22.61,1.19,33.72,1.19,49.18,0,87.26-14.28,114.24-42.84,26.97-28.56,40.46-70.86,40.46-126.93Z"/>
    <path d="M3910.29,148.05c2.64,4.24,5.16,9.92,7.54,17.06,2.38,7.14,3.57,14.95,3.57,23.4,0,14.28-3.31,25.13-9.92,32.53-6.62,7.41-15.47,11.11-26.58,11.11h-191.19v126.14h189.6c2.64,4.24,5.16,9.79,7.54,16.66,2.38,6.88,3.57,14.55,3.57,23.01,0,14.28-3.31,24.99-9.92,32.13-6.62,7.14-15.47,10.71-26.58,10.71h-162.63v188.01c-4.76,1.05-11.5,2.38-20.23,3.97-8.73,1.59-17.85,2.38-27.37,2.38-20.11,0-34.38-3.71-42.84-11.11-8.47-7.4-12.69-19.83-12.69-37.29V202.79c0-16.92,4.88-30.27,14.68-40.06,9.78-9.78,23.13-14.68,40.06-14.68h263.38Z"/>
  </g>
  <g>
    <circle cx="549.94" cy="363.64" r="178.18" fill="#0891b2"/>
    <path fill="#0891b2" d="M549.94,686.45c-178,0-322.81-144.81-322.81-322.81S371.94,40.84,549.94,40.84s322.81,144.81,322.81,322.81-144.81,322.81-322.81,322.81ZM549.94,83.4c-154.53,0-280.25,125.72-280.25,280.25s125.72,280.25,280.25,280.25,280.25-125.72,280.25-280.25-125.72-280.25-280.25-280.25Z"/>
  </g>
  <path fill="#0891b2" d="M364.4,728.11c-2.57,0-5.14-.03-7.7-.08-7.01-.15-12.58-5.95-12.43-12.96.15-7.01,5.95-12.52,12.96-12.43,13.5.28,27.23-.25,40.75-1.6,6.98-.68,13.2,4.4,13.9,11.38.7,6.98-4.4,13.2-11.38,13.9-11.96,1.19-24.1,1.8-36.1,1.8ZM281.57,718.15c-1,0-2.01-.12-3.02-.36-14.14-3.45-28.23-7.8-41.89-12.94-6.56-2.47-9.89-9.79-7.42-16.36,2.47-6.56,9.79-9.89,16.36-7.42,12.7,4.78,25.82,8.83,38.97,12.04,6.81,1.66,10.99,8.53,9.33,15.35-1.42,5.8-6.61,9.69-12.33,9.69ZM473.67,710.8c-5.36,0-10.34-3.42-12.08-8.79-2.16-6.67,1.49-13.83,8.16-16,12.92-4.19,25.69-9.2,37.96-14.88,6.36-2.95,13.91-.18,16.86,6.18,2.95,6.36.18,13.91-6.18,16.86-13.18,6.11-26.91,11.49-40.8,15.99-1.3.42-2.62.62-3.92.62ZM173.23,671.39c-2.37,0-4.76-.66-6.9-2.05-12.22-7.92-24.09-16.67-35.27-25.99-5.39-4.49-6.12-12.5-1.63-17.89,4.49-5.39,12.5-6.12,17.89-1.63,10.41,8.68,21.46,16.81,32.83,24.19,5.89,3.82,7.56,11.68,3.75,17.56-2.43,3.75-6.51,5.79-10.67,5.79ZM86.39,591.62c-3.79,0-7.54-1.69-10.04-4.92-8.93-11.51-17.24-23.68-24.71-36.17-3.6-6.02-1.64-13.82,4.38-17.42,6.02-3.6,13.82-1.64,17.42,4.38,6.94,11.62,14.67,22.93,22.97,33.63,4.3,5.54,3.29,13.52-2.25,17.82-2.32,1.79-5.06,2.66-7.78,2.66ZM30.86,487.61c-5.32,0-10.28-3.37-12.05-8.69-4.27-12.82-7.87-26.06-10.71-39.36l-.62-2.96c-1.41-6.87,3.03-13.58,9.9-14.99,6.88-1.41,13.58,3.03,14.99,9.9l.57,2.75c2.65,12.38,6,24.72,9.97,36.65,2.22,6.65-1.38,13.84-8.04,16.06-1.33.44-2.68.65-4.01.65ZM12.7,371.04c-.06,0-.11,0-.17,0-7.01-.09-12.62-5.85-12.53-12.87.19-14.58,1.28-29.3,3.24-43.75.94-6.95,7.33-11.8,14.29-10.88,6.95.94,11.82,7.34,10.88,14.29-1.82,13.43-2.83,27.12-3.01,40.67-.09,6.96-5.76,12.53-12.7,12.53ZM34.14,255.02c-1.45,0-2.93-.25-4.38-.78-6.58-2.42-9.96-9.71-7.55-16.3,5.02-13.66,10.92-27.18,17.54-40.17,3.19-6.25,10.83-8.73,17.08-5.54,6.25,3.19,8.73,10.84,5.54,17.08-6.17,12.09-11.66,24.66-16.33,37.38-1.89,5.14-6.75,8.33-11.92,8.33ZM92.7,152.61c-2.83,0-5.68-.94-8.05-2.88-5.42-4.45-6.21-12.45-1.77-17.87,9.25-11.28,19.26-22.09,29.76-32.15,5.06-4.85,13.1-4.68,17.96.39,4.85,5.07,4.68,13.1-.39,17.96-9.77,9.36-19.09,19.42-27.69,29.91-2.51,3.06-6.15,4.65-9.83,4.65ZM181.7,75.25c-4.29,0-8.47-2.17-10.86-6.1-3.65-5.99-1.75-13.81,4.25-17.45,12.44-7.57,25.48-14.46,38.76-20.48,6.39-2.9,13.91-.06,16.81,6.32,2.9,6.39.06,13.92-6.32,16.81-12.34,5.6-24.47,12-36.04,19.04-2.06,1.26-4.34,1.85-6.59,1.85ZM450.79,34.61c-1.03,0-2.08-.13-3.12-.39-13.15-3.32-26.63-5.87-40.07-7.59-6.96-.89-11.88-7.24-10.99-14.2s7.25-11.88,14.2-10.99c14.45,1.84,28.95,4.58,43.09,8.16,6.8,1.72,10.92,8.62,9.2,15.42-1.45,5.76-6.63,9.59-12.3,9.59ZM291.3,31.76c-5.87,0-11.13-4.08-12.41-10.05-1.46-6.86,2.91-13.61,9.77-15.07,14.28-3.05,28.85-5.26,43.32-6.59,6.99-.64,13.17,4.5,13.8,11.49.64,6.98-4.5,13.16-11.49,13.8-13.47,1.23-27.04,3.3-40.33,6.13-.89.19-1.79.28-2.66.28Z"/>
</svg>
