<svg version="1.1" xmlns="http://www.w3.org/2000/svg" viewBox="0 0 350.8916015625 404.7689971923828" width="350.8916015625" height="404.7689971923828">
  <!-- svg-source:excalidraw -->
  
  <defs>
    <style class="style-fonts">
      @font-face {
        font-family: "Virgil";
        src: url("https://excalidraw.com/Virgil.woff2");
      }
      @font-face {
        font-family: "Cascadia";
        src: url("https://excalidraw.com/Cascadia.woff2");
      }
      @font-face {
        font-family: "Assistant";
        src: url("https://excalidraw.com/Assistant-Regular.woff2");
      }
    </style>
    
  </defs>
  <rect x="0" y="0" width="350.8916015625" height="404.7689971923828" fill="#ffffff"></rect><g stroke-linecap="round" transform="translate(10 10) rotate(0 165.44580078125 192.3844985961914)"><path d="M32 0 C121.59 -3.19, 212.2 -5.67, 298.89 0 C319.37 3.48, 329.51 11.32, 330.89 32 C330.96 144.27, 333.57 251.13, 330.89 352.77 C330.28 371.41, 320.03 388.28, 298.89 384.77 C233.08 386.98, 163.48 388.15, 32 384.77 C13.06 387.31, -0.75 372.57, 0 352.77 C-0.39 258.65, 1.76 166.58, 0 32 C-0.16 13.16, 9.75 2.42, 32 0" stroke="none" stroke-width="0" fill="#a5d8ff"></path><path d="M32 0 C128.9 2.84, 224.21 0.44, 298.89 0 M32 0 C93.45 1.8, 155.65 2.12, 298.89 0 M298.89 0 C318.46 -0.25, 329.98 10.81, 330.89 32 M298.89 0 C319.74 1.01, 330.48 10.72, 330.89 32 M330.89 32 C331.17 117.75, 331.51 206.94, 330.89 352.77 M330.89 32 C330.13 132.93, 329.84 234.33, 330.89 352.77 M330.89 352.77 C331.12 373.77, 322.07 384.07, 298.89 384.77 M330.89 352.77 C328.67 376.33, 321.37 384.1, 298.89 384.77 M298.89 384.77 C195.71 385.59, 96.82 385.68, 32 384.77 M298.89 384.77 C210.51 386.7, 121.05 385.43, 32 384.77 M32 384.77 C10.77 384.64, -0.31 373.39, 0 352.77 M32 384.77 C11.24 383.28, -1.92 375.41, 0 352.77 M0 352.77 C-1.54 247.03, -0.69 138.93, 0 32 M0 352.77 C-1.23 282.67, -1.31 213.99, 0 32 M0 32 C-0.9 10.33, 10.5 -1.9, 32 0 M0 32 C1.41 12.59, 11.09 0, 32 0" stroke="#1e1e1e" stroke-width="2" fill="none"></path></g><g transform="translate(81.69580101562497 29.243133970703127) rotate(0 93.75 12)"><text x="0" y="19.3125" font-family="Cascadia, Segoe UI Emoji" font-size="20px" fill="#1e1e1e" text-anchor="start" style="white-space: pre;" direction="ltr" dominant-baseline="alphabetic">OpenTDF Platform</text></g><g stroke-linecap="round" transform="translate(71.59217849796232 86.23917026385462) rotate(0 100.58043662992509 27.99204616680946)"><path d="M14 0 C53.62 0.87, 94.89 1.56, 187.16 0 C193.27 -3.41, 203.92 8.19, 201.16 14 C201.05 17.91, 200.99 25.16, 201.16 41.99 C201.1 52.48, 195.8 54.93, 187.16 55.98 C133.64 56.01, 86.35 59.1, 14 55.98 C5.63 53.87, 2.29 50.23, 0 41.99 C3.11 34.03, 3.41 23.02, 0 14 C0.65 6.47, 2.53 -3.44, 14 0" stroke="none" stroke-width="0" fill="#b2f2bb"></path><path d="M14 0 C73.96 -1.35, 131.69 -1.76, 187.16 0 M14 0 C62.49 0.46, 110.18 1.47, 187.16 0 M187.16 0 C198.18 -1.36, 200.61 5.74, 201.16 14 M187.16 0 C197.79 0.28, 202.92 2.83, 201.16 14 M201.16 14 C201.55 20.99, 202.82 26.36, 201.16 41.99 M201.16 14 C201.66 23.75, 202.01 31.96, 201.16 41.99 M201.16 41.99 C202.16 50.41, 197.32 57.09, 187.16 55.98 M201.16 41.99 C203.08 51.39, 194.35 54.08, 187.16 55.98 M187.16 55.98 C148.7 56.5, 108.63 56.73, 14 55.98 M187.16 55.98 C140.03 53.9, 92.69 54.98, 14 55.98 M14 55.98 C4.8 56.67, -1.88 49.82, 0 41.99 M14 55.98 C6.65 58.21, 1.08 50.06, 0 41.99 M0 41.99 C-1.92 32.95, -1.94 24.4, 0 14 M0 41.99 C0.47 35.28, 1.03 27.47, 0 14 M0 14 C1.15 4.76, 6.63 0.01, 14 0 M0 14 C1.98 5.22, 3.88 -1.84, 14 0" stroke="#1e1e1e" stroke-width="4" fill="none"></path></g><g transform="translate(144.8656540683171 101.43216695384845) rotate(0 27.306961059570312 12.799049476815625)"><text x="27.306961059570312" y="17.93914774670477" font-family="Virgil, Segoe UI Emoji" font-size="20.47847916290499px" fill="#1e1e1e" text-anchor="middle" style="white-space: pre;" direction="ltr" dominant-baseline="alphabetic">Policy</text></g><g stroke-linecap="round" transform="translate(74.8653641308594 186.6847285966797) rotate(0 100.58043627339524 27.3380126953125)"><path d="M13.67 0 C57.92 0.42, 97.2 3.72, 187.49 0 C197.27 0.85, 201.82 4.52, 201.16 13.67 C197.8 22.51, 201.88 33.27, 201.16 41.01 C200.85 51.26, 196.64 54.7, 187.49 54.68 C124.7 52.55, 65.32 54.19, 13.67 54.68 C5.92 52.1, -2.6 47.85, 0 41.01 C0.75 32.31, -0.44 20.94, 0 13.67 C-1.63 7.42, 5.77 -1.23, 13.67 0" stroke="none" stroke-width="0" fill="#b2f2bb"></path><path d="M13.67 0 C77.9 2.1, 146.14 1.58, 187.49 0 M13.67 0 C49.73 -0.34, 85.59 -0.35, 187.49 0 M187.49 0 C197.48 -1.76, 200.52 5.99, 201.16 13.67 M187.49 0 C195.74 2.21, 202.09 2.73, 201.16 13.67 M201.16 13.67 C200 25.04, 202.8 34.6, 201.16 41.01 M201.16 13.67 C201.39 20.23, 201.09 25.37, 201.16 41.01 M201.16 41.01 C202.26 51.15, 196.65 53.93, 187.49 54.68 M201.16 41.01 C202.3 50.27, 197.44 56.67, 187.49 54.68 M187.49 54.68 C134.16 52.81, 80.65 51.73, 13.67 54.68 M187.49 54.68 C124.4 53.62, 59.79 54.52, 13.67 54.68 M13.67 54.68 C3.14 52.98, 1.59 49.28, 0 41.01 M13.67 54.68 C3.33 54.96, -0.57 50.6, 0 41.01 M0 41.01 C-0.65 30.67, -1.63 23.51, 0 13.67 M0 41.01 C-0.2 31.08, -0.72 22.4, 0 13.67 M0 13.67 C-0.45 2.77, 6.08 0.64, 13.67 0 M0 13.67 C-1 3.25, 3.33 0, 13.67 0" stroke="#1e1e1e" stroke-width="4" fill="none"></path></g><g transform="translate(110.14586601704764 201.5227412919922) rotate(0 65.29993438720703 12.5)"><text x="65.29993438720703" y="17.52" font-family="Virgil, Segoe UI Emoji" font-size="20px" fill="#1e1e1e" text-anchor="middle" style="white-space: pre;" direction="ltr" dominant-baseline="alphabetic">Authorization</text></g><g stroke-linecap="round" transform="translate(72.28346267764982 285.8222191142578) rotate(0 100.58043650000002 27.338012695312496)"><path d="M13.67 0 C80.55 3.11, 152.16 2.33, 187.49 0 C198.32 1.86, 201.69 1.32, 201.16 13.67 C202.27 18.94, 198.91 26.23, 201.16 41.01 C199.63 51.27, 196.23 54.74, 187.49 54.68 C127.69 49.27, 63.26 52.66, 13.67 54.68 C7.5 54.06, -0.75 47.07, 0 41.01 C-1.11 35.89, 1.32 25.18, 0 13.67 C-2.12 3.66, 2.41 -1.6, 13.67 0" stroke="none" stroke-width="0" fill="#b2f2bb"></path><path d="M13.67 0 C81.39 2.49, 150.79 -0.17, 187.49 0 M13.67 0 C75.78 -0.32, 139.52 -0.17, 187.49 0 M187.49 0 C197.75 -1.97, 201.88 2.59, 201.16 13.67 M187.49 0 C196.68 0.36, 201.58 3.87, 201.16 13.67 M201.16 13.67 C202.86 24.32, 201.28 30.67, 201.16 41.01 M201.16 13.67 C201.5 20.56, 200.37 29.38, 201.16 41.01 M201.16 41.01 C199.5 49.38, 195.05 53.72, 187.49 54.68 M201.16 41.01 C201.27 50.45, 194.78 53.73, 187.49 54.68 M187.49 54.68 C129.53 56.46, 69.3 53.78, 13.67 54.68 M187.49 54.68 C131.45 54.4, 76.57 54.43, 13.67 54.68 M13.67 54.68 C4.97 52.99, 0.21 49.95, 0 41.01 M13.67 54.68 C6.54 52.51, 1.66 48.49, 0 41.01 M0 41.01 C0.56 32.43, -0.4 22.27, 0 13.67 M0 41.01 C-0.59 36.19, 0.7 29.27, 0 13.67 M0 13.67 C0.95 4.57, 5.54 0.68, 13.67 0 M0 13.67 C1.28 3.11, 5.27 -1.83, 13.67 0" stroke="#1e1e1e" stroke-width="4" fill="none"></path></g><g transform="translate(82.79397577677094 300.6602318095703) rotate(0 90.0699234008789 12.5)"><text x="90.0699234008789" y="17.52" font-family="Virgil, Segoe UI Emoji" font-size="20px" fill="#1e1e1e" text-anchor="middle" style="white-space: pre;" direction="ltr" dominant-baseline="alphabetic">Key Access Server</text></g></svg>